<svg width="22" height="17" viewBox="0 0 22 17" fill="none" xmlns="http://www.w3.org/2000/svg">
<path d="M16.6731 1.99023L11.0602 6.37063L5.31891 1.99023V1.99142L5.32585 1.99734V8.13107L10.9954 12.6062L16.6731 8.30392V1.99023Z" fill="#EA4335"/>
<path d="M18.147 0.924736L16.673 1.99024V8.30392L21.3113 4.74278V2.59757C21.3113 2.59757 20.7483 -0.466335 18.147 0.924736Z" fill="#FBBC05"/>
<path d="M16.673 8.30406V16.493H20.228C20.228 16.493 21.2396 16.3889 21.3124 15.2357V4.74292L16.673 8.30406Z" fill="#34A853"/>
<path d="M5.32611 16.4998V8.13092L5.31891 8.125L5.32611 16.4998Z" fill="#C5221F"/>
<path d="M5.31888 1.9915L3.85293 0.931923C1.25168 -0.459148 0.6875 2.60358 0.6875 2.60358V4.74879L5.31888 8.12524V1.9915Z" fill="#C5221F"/>
<path d="M5.31891 1.99146V8.12519L5.32611 8.13111V1.99737L5.31891 1.99146Z" fill="#C5221F"/>
<path d="M0.6875 4.75V15.2428C0.759179 16.3971 1.77193 16.5001 1.77193 16.5001H5.32697L5.31888 8.12527L0.6875 4.75Z" fill="#4285F4"/>
</svg>
